PathFileType	4	(X/Y/Z)	C:/Users/opensim2020/Desktop/walking_exp_matlab/subject01_walking05_straight_01.trc																																																																																																																															
DataRate	CameraRate	NumFrames	NumMarkers	Units	OrigDataRate	OrigDataStartFrame	OrigNumFrames																																																																																																																											
100	100	5	43	mm	100	874	239																																																																																																																											
Frame#	Time	LFHD			RFHD			LBHD			RBHD			C7			T10			CLAV			STRN			RBAK			LSHO			LUPA			LELB			LFRM			LWRA			LWRB			LFIN			RSHO			RUPA			RELB			RFRM			RWRA			RWRB			RFIN			LASI			RASI			LPSI			RPSI			LTHI			LKNE			LTIB			LANK			LHEE			LTOE			RTHI			RKNE			RTIB			RANK			RHEE			RTOE			*39			*40			*41			*42		
		X1	Y1	Z1	X2	Y2	Z2	X3	Y3	Z3	X4	Y4	Z4	X5	Y5	Z5	X6	Y6	Z6	X7	Y7	Z7	X8	Y8	Z8	X9	Y9	Z9	X10	Y10	Z10	X11	Y11	Z11	X12	Y12	Z12	X13	Y13	Z13	X14	Y14	Z14	X15	Y15	Z15	X16	Y16	Z16	X17	Y17	Z17	X18	Y18	Z18	X19	Y19	Z19	X20	Y20	Z20	X21	Y21	Z21	X22	Y22	Z22	X23	Y23	Z23	X24	Y24	Z24	X25	Y25	Z25	X26	Y26	Z26	X27	Y27	Z27	X28	Y28	Z28	X29	Y29	Z29	X30	Y30	Z30	X31	Y31	Z31	X32	Y32	Z32	X33	Y33	Z33	X34	Y34	Z34	X35	Y35	Z35	X36	Y36	Z36	X37	Y37	Z37	X38	Y38	Z38	X39	Y39	Z39	X40	Y40	Z40	X41	Y41	Z41	X42	Y42	Z42	X43	Y43	Z43
																																																																																																																																		
120	1.19	-59.69921	1679.1051	-1041.09277	-44.61758	1690.34644	-928.14697	-156.19066	1600.13257	-1029.27051	-142.98952	1609.45605	-909.32715	-156.65445	1432.87073	-981.65302	-186.9819	1141.18701	-966.17053	-10.44412	1370.19397	-987.22565	34.64994	1214.52734	-993.19623	-200.63139	1240.63721	-894.33618	-79.60323	1396.63635	-1145.67188	-125.61499	1214.03284	-1225.60754	-152.23189	1065.203	-1223.31213	-119.02589	955.104	-1247.3291	-42.13715	838.53223	-1232.22485	-98.88138	834.32294	-1251.13416	-54.40296	763.02197	-1261.86499	-64.37829	1398.90833	-832.62445	-95.85615	1197.41699	-723.11157	-77.97042	1072.3717	-716.34668	-23.32615	963.09045	-690.74011	78.35986	867.54651	-719.14185	38.77362	858.36963	-677.72601	92.93811	793.20441	-681.45996	-21.60225	937.55389	-1084.03247	-14.66316	934.5451	-866.68616	-205.66652	944.46625	-1029.8075	-201.75656	950.7876	-885.03735	42.0401	626.05157	-1154.38684	67.39551	493.76657	-1141.44836	-3.13947	317.69537	-1144.87231	-45.29774	102.93619	-1093.07715	-79.69257	72.94982	-1030.9115	84.05627	53.34589	-1127.8125	-90.02303	601.99536	-819.383	-96.0949	443.04346	-847.44647	-163.24402	278.98785	-840.25079	-206.12489	77.15839	-894.89868	-257.45621	42.07649	-945.04169	-66.37802	34.17833	-900.36591	-68.00099	1717.78394	-950.01031	1973.17114	1023.47687	-3101.88989	2012.58252	1022.04376	-3140.45752	NaN	NaN	NaN
121	1.2	-50.72789	1678.43042	-1042.09033	-35.69938	1689.9873	-929.14392	-147.20444	1599.46106	-1030.19958	-134.10594	1609.17041	-910.17548	-147.71875	1432.33374	-981.74811	-178.39798	1140.80151	-966.03064	-1.6757	1369.63586	-987.65155	43.23326	1213.86194	-993.52838	-191.6396	1240.31885	-894.0387	-71.07732	1396.11414	-1145.98926	-117.64584	1213.5	-1225.7738	-145.26407	1064.95129	-1222.84851	-113.81071	954.48627	-1246.6488	-38.90891	836.53876	-1230.95093	-95.71834	833.3606	-1250.46082	-52.58277	760.99506	-1260.50061	-55.06442	1398.71899	-833.10455	-85.87606	1197.5415	-722.86755	-67.60631	1072.57495	-715.61121	-11.46794	963.84821	-690.20117	91.31155	869.62451	-718.89313	51.91548	859.88409	-677.37347	107.15673	795.68762	-681.15747	-13.21469	936.89117	-1084.10327	-6.49856	933.68176	-866.68768	-197.45535	944.17725	-1030.01355	-193.30898	950.49146	-885.51367	50.3049	625.65088	-1154.53674	76.06454	493.4274	-1140.97864	13.57286	314.18893	-1145.49817	-16.26972	96.53664	-1094.68176	-49.38623	65.28174	-1032.77234	115.86909	53.76774	-1128.66052	-84.79784	601.58142	-819.61511	-92.68056	442.79556	-847.01538	-161.27556	279.32184	-840.22717	-205.2113	77.81288	-894.79193	-256.86603	42.77985	-945.06995	-66.23117	34.17892	-900.29059	-59.06972	1717.36462	-951.1532	1973.05078	1023.66431	-3101.9314	2012.57788	1022.04187	-3140.42212	NaN	NaN	NaN
122	1.21	-41.7156	1677.63843	-1043.33655	-26.74823	1689.49585	-930.2818	-138.33627	1598.84302	-1031.27734	-125.14158	1608.82092	-911.23181	-139.10716	1431.90479	-981.92334	-169.93877	1140.35559	-966.10956	7.16635	1369.07385	-988.23004	51.86446	1213.15564	-993.90601	-182.70811	1239.96863	-893.82526	-62.52714	1395.49731	-1146.34705	-109.61849	1212.91113	-1226.02747	-138.10097	1064.80457	-1222.57959	-108.34555	953.79895	-1246.20166	-35.56876	834.42218	-1229.85254	-92.2178	832.42578	-1249.93884	-50.28277	759.13898	-1259.23962	-45.92023	1398.42834	-833.60016	-75.79069	1197.60999	-722.72949	-57.30927	1072.69397	-714.92969	0.00603	964.47113	-689.66644	104.15448	871.78674	-718.75043	64.89159	861.44873	-677.17261	121.16073	798.0343	-680.96735	-4.69137	936.22772	-1084.2876	1.50622	932.77985	-866.78979	-189.07047	943.80273	-1030.28455	-185.19176	950.39392	-885.78094	57.9986	624.89703	-1154.93237	84.04537	492.48428	-1140.67212	30.35154	310.76489	-1146.32764	12.87912	91.3684	-1096.70227	-19.37058	58.54603	-1035.09644	147.50977	54.8893	-1129.16846	-79.6506	601.39172	-819.61639	-89.40279	442.56943	-847.20337	-159.18788	279.77151	-840.20642	-205.23705	78.29356	-894.77838	-256.6532	43.4824	-944.9328	-66.23679	34.07389	-900.24286	-50.08409	1716.81982	-952.42059	1973.02039	1023.32458	-3101.85815	2012.56787	1021.97754	-3140.67676	NaN	NaN	NaN
123	1.22	-32.67128	1676.85913	-1044.61951	-17.85673	1688.85059	-931.25568	-129.22627	1597.97681	-1032.39722	-116.34243	1608.35083	-912.42291	-130.10616	1431.34949	-982.36163	-161.44542	1139.89392	-966.33246	16.00239	1368.37158	-988.83386	60.56779	1212.39746	-994.34692	-173.70113	1239.54333	-893.79254	-53.83551	1394.81689	-1146.89624	-101.47131	1212.2373	-1226.36401	-130.85832	1064.3103	-1222.47778	-102.5871	953.08722	-1245.87	-31.81521	832.52472	-1228.8905	-88.33189	831.43988	-1249.46606	-47.53358	757.37415	-1258.16211	-36.55687	1398.0918	-834.26093	-65.71976	1197.68213	-722.61011	-47.01056	1072.78906	-714.39624	11.62029	965.11951	-689.30511	116.83006	873.75531	-718.7077	77.75631	862.92847	-677.07697	134.87851	800.36627	-680.84796	3.97628	935.53125	-1084.5564	9.80498	932.13184	-866.88489	-180.66501	943.29236	-1030.75647	-176.96594	950.07361	-886.43579	64.93281	623.33704	-1155.23877	91.74319	491.27283	-1140.43188	47.20328	307.7088	-1147.24377	41.94187	87.12095	-1098.85327	10.69943	52.91318	-1037.30591	178.71609	56.49228	-1129.33582	-74.53313	601.36969	-819.47748	-85.61862	442.63199	-846.6853	-157.27931	280.30249	-840.22473	-204.82849	79.10017	-894.78729	-256.99948	45.5278	-945.09979	-66.19685	34.08512	-900.17041	-41.09665	1716.18835	-953.80054	1973.15344	1023.36316	-3101.91748	2012.55005	1021.99756	-3140.72778	NaN	NaN	NaN
124	1.23	-23.59504	1675.78406	-1045.7323	-8.87701	1688.18091	-932.69965	-120.17156	1597.16797	-1033.57495	-107.41846	1607.79065	-913.60834	-121.02349	1430.552	-982.94379	-152.92033	1139.33447	-966.80786	24.87338	1367.6427	-989.4975	69.30624	1211.57837	-994.82892	-164.78343	1239.08875	-893.94696	-45.05537	1394.09802	-1147.58862	-93.30423	1211.53625	-1226.79395	-123.31285	1063.99158	-1222.50696	-96.53529	952.38489	-1245.61951	-27.63953	830.79694	-1228.13525	-84.07821	830.50354	-1249.15857	-44.3096	755.67999	-1257.12183	-27.28936	1397.67883	-835.04688	-55.65501	1197.73767	-722.52252	-36.82383	1072.83423	-713.91327	23.33836	965.7157	-689.16016	129.09174	875.54022	-718.88544	90.53296	864.15869	-677.03094	148.41446	802.6051	-680.9527	12.79632	934.82202	-1084.91711	17.6786	931.27826	-867.22101	-172.05652	942.71844	-1031.26953	-168.76482	949.8089	-886.79004	71.66787	621.67767	-1155.64539	99.21074	489.78549	-1140.38879	63.9857	304.89874	-1148.25171	70.43117	83.77367	-1100.86633	40.01016	48.47563	-1039.69946	209.03752	58.90342	-1129.22791	-69.16515	601.4295	-819.49432	-82.15444	442.22806	-846.87543	-155.12187	280.92728	-840.1994	-204.23286	80.12811	-894.60052	-256.58932	46.43764	-944.92041	-66.19977	34.07181	-900.14764	-32.11861	1715.53564	-955.15588	1973.2594	1023.39581	-3101.87427	2012.51526	1022.01715	-3140.58179	NaN	NaN	NaN
